<?xml version="1.0" standalone="no"?>
<!DOCTYPE svg PUBLIC "-//W3C//DTD SVG 1.1//EN" "http://www.w3.org/Graphics/SVG/1.1/DTD/svg11.dtd" >
<svg xmlns="http://www.w3.org/2000/svg" xmlns:xlink="http://www.w3.org/1999/xlink" version="1.1">
<metadata></metadata>
<defs>
<font id="skater_parkregular" horiz-adv-x="1531" >
<font-face units-per-em="2048" ascent="1536" descent="-512" />
<missing-glyph horiz-adv-x="958" />
<glyph horiz-adv-x="0" />
<glyph horiz-adv-x="682" />
<glyph unicode=" "  horiz-adv-x="958" />
<glyph unicode="&#x09;" horiz-adv-x="958" />
<glyph unicode="&#xa0;" horiz-adv-x="958" />
<glyph unicode="!" horiz-adv-x="1214" d="M289 2146l432 230l-109 -1557l-143 33zM303 203q-70 73 76 157q-143 132 -68 207q77 77 176 -125q158 205 238 115q72 -78 72 -176q0 -119 -90 -197q-80 -68 -185 95q-136 -162 -219 -76z" />
<glyph unicode="&#x22;" horiz-adv-x="1267" d="M68 1358l411 139l137 -473l-364 -98zM733 1477h445l-170 -551l-252 55z" />
<glyph unicode="#" horiz-adv-x="1638" d="M0 272l16 207l254 33l17 213l-264 -35l8 230l266 32l16 308l279 65l-25 -348l330 49l29 299l311 37l-45 -315l338 49l-25 -213l-336 -49l-32 -230l362 60l-26 -222l-343 -59l-47 -289l-295 -43l46 314l-267 -46l-28 -278l-289 -27l20 279zM551 535l311 40l19 222 l-314 -43z" />
<glyph unicode="$" horiz-adv-x="987" d="M2 412l219 317q40 -76 84.5 -107.5t102.5 -31.5q133 0 133 80q0 4 -226 75q-223 70 -223 211q0 114 150 197q151 86 344 86q113 0 186 -20q81 -22 189 -91l-134 -247q-12 38 -39 60.5t-59 30t-76 7.5q-10 -1 -28 -2t-28 -2t-24.5 -3t-22.5 -4.5t-16.5 -7t-12 -10.5 t-3.5 -14q0 -14 223 -84q224 -70 224 -264q0 -144 -170 -246q-168 -98 -404 -98q-107 0 -184 30q-80 36 -205 138zM266 1579l338 39v-270l-256 -66zM276 168l373 29l-18 -310l-273 27z" />
<glyph unicode="%" horiz-adv-x="1966" d="M63 981q0 163 119 276q120 117 293 117q193 0 307 -178q82 -128 82 -221q0 -159 -121 -283q-121 -121 -288 -121q-164 0 -277 119q-115 121 -115 291zM342 942q0 -53 41.5 -93t85.5 -40q53 6 81 40t28 85q0 62 -28 98.5t-75 36.5q-56 0 -94.5 -36.5t-38.5 -90.5zM537 -63 l626 1445l226 -239l-721 -1243zM1106 334q0 163 121 278q120 117 295 117q190 0 303 -180q84 -134 84 -221q0 -159 -121 -283q-121 -121 -287 -121q-167 0 -280 119q-115 121 -115 291zM1389 297q0 -53 40.5 -93t81.5 -40q54 4 82.5 38t28.5 85q0 41 -16 78q-26 57 -88 57 q-56 0 -92.5 -35.5t-36.5 -89.5z" />
<glyph unicode="&#x26;" horiz-adv-x="1720" d="M23 258q0 177 163 291q174 89 244 129q-181 83 -223 121q-35 35 -35 127q0 107 129 215q124 98 330 184l33 205l241 29l-18 -148q243 66 399 66q49 -103 70 -158q22 -48 33 -92q-133 -19 -293 -39q-187 -27 -279 -72q-123 -58 -123 -153q0 -43 66 -43q81 0 258 65 q172 63 287 127q4 -32 4 -35q0 -9 -1 -40t-1 -52v-131q0 -19 4 -43q-229 -36 -447 -158q-225 -123 -225 -284q0 -133 139 -133q68 0 159.5 36.5t176.5 98.5q-178 0 -244 -6l25 204l801 238l-37 -379l-240 -29q-226 -197 -420 -307q-239 -133 -426 -133q-218 0 -374 72 q-176 83 -176 227z" />
<glyph unicode="'" horiz-adv-x="610" d="M84 1477h444l-170 -551l-252 55z" />
<glyph unicode="(" horiz-adv-x="788" d="M23 829q0 200 127 404q117 191 274 274l205 -147q118 -88 155 -131l-202 -189q-119 -119 -119 -221q0 -121 69 -244q50 -89 191 -266l-231 -256q-146 93 -289 297q-180 253 -180 479z" />
<glyph unicode=")" horiz-adv-x="788" d="M4 1155q43 43 225 191l136 108q149 -79 276 -289q125 -204 125 -411t-172 -461q-141 -213 -297 -316l-115 121q-65 72 -116 135q125 148 184 254q76 134 76 256q0 98 -103 207z" />
<glyph unicode="*" horiz-adv-x="1173" d="M2 848l29 184l331 -33l-256 240l203 98l207 -276l21 299l188 -8l-35 -301l287 229l102 -147l-334 -197l345 -16l-37 -164l-328 47l223 -228l-209 -94l-143 258l-18 -293l-177 13l29 297l-237 -226l-101 115l209 184z" />
<glyph unicode="+" horiz-adv-x="1087" d="M0 506l23 223l346 55l39 383l254 21l-37 -387l368 55l-39 -217l-346 -51l-30 -322l-254 -28l38 323z" />
<glyph unicode="," horiz-adv-x="667" d="M47 209q0 101 82 168q81 69 197 69q122 0 200 -69q90 -78 90 -209q0 -165 -167 -295q-169 -135 -381 -135q96 125 96 262l-2 35q-50 11 -82.5 59t-32.5 115z" />
<glyph unicode="-" horiz-adv-x="952" d="M0 317l18 361l838 51l-18 -369z" />
<glyph unicode="." horiz-adv-x="706" d="M72 199q0 114 78.5 190t201.5 76q129 0 211 -88q72 -78 72 -176q0 -119 -90 -197q-79 -67 -191 -67q-130 0 -213 86q-69 72 -69 176z" />
<glyph unicode="/" horiz-adv-x="1101" d="M-18 -63l628 1445l453 -239l-721 -1243z" />
<glyph unicode="0" horiz-adv-x="1595" d="M27 715q0 317 229 540q232 226 569 226q358 0 570 -262q182 -226 182 -512q0 -310 -234 -547q-234 -234 -559 -234q-312 0 -536 230q-221 232 -221 559zM451 950q115 -436 163 -493q-86 -122 38 -110q58 6 159 40q102 0 246 -39q80 -20 64 61q-14 70 -101 216 q133 166 37 163q-26 -1 -70 -14q-63 133 -229 422q-54 -398 -157 -397q-64 0 -150 151z" />
<glyph unicode="1" horiz-adv-x="1120" d="M31 530l528 584l477 133l-186 -1331l-442 33l241 739z" />
<glyph unicode="2" horiz-adv-x="1261" d="M72 16l147 215q265 258 303 293q80 236 -5 234q-10 0 -23 -4q-121 -31 -201 -31q-97 0 -191 -70l115 609q3 196 137 196q334 0 566 -90q278 -111 278 -324q0 -189 -94 -305q-78 -94 -256 -247l323 -68v-533z" />
<glyph unicode="3" horiz-adv-x="1415" d="M39 35l70 227q250 83 340 31q94 -49 186 -49q69 0 112.5 36.5t43.5 86.5q0 64 -84 127q-79 62 -418 112q283 42 352 78q84 50 84 96q0 55 -33 94q-43 52 -123 52q-88 0 -192 -43q-87 -36 -211 -107l104 404q76 245 332 245q344 0 565 -118q224 -116 224 -324 q0 -118 -91 -209q-80 -80 -260 -156q85 -56 139 -149t54 -186q0 -176 -160 -285q-174 -119 -518 -119q-164 0 -270 33q-107 29 -246 123z" />
<glyph unicode="4" horiz-adv-x="1427" d="M39 340l297 1006l590 135l309 -1008l156 -49l-29 -266h-205v-254h-641v340zM360 569l613 -94l-289 754z" />
<glyph unicode="5" horiz-adv-x="1337" d="M51 1262l869 524l120 -610l-575 -132l24 -221q204 121 406 121q175 0 272 -106q105 -114 105 -340q0 -276 -176 -426q-171 -142 -449 -142q-161 0 -312.5 47.5t-256.5 131.5l192 290q85 -55 176 -55q74 0 107 21t33 65q0 72 -61 108.5t-173 36.5q-102 0 -157 -40z" />
<glyph unicode="6" horiz-adv-x="1400" d="M51 618q0 293 203 519q189 206 629 993l303 -1172q-190 -28 -258 -59q-140 -59 -183 -194q66 21 117 32q64 15 135 15q170 0 263 -84q102 -94 102 -281q0 -219 -209 -360q-201 -136 -498 -136q-263 0 -434 213q-170 212 -170 514zM772 352q0 -60 46 -103.5t108 -43.5 q66 0 110.5 42.5t44.5 104.5q0 61 -45 103.5t-110 42.5q-63 0 -108.5 -43t-45.5 -103z" />
<glyph unicode="7" horiz-adv-x="1390" d="M78 823l192 389l594 50l527 -340l-527 -856l-467 -33l451 852z" />
<glyph unicode="8" horiz-adv-x="1556" d="M162 295q0 112 90 213q218 -15 541 246q-327 50 -404 149q-78 104 -78 219q0 172 152 268.5t436 96.5q243 0 412 -117q196 -135 196 -379q0 -100 -45 -168q-68 -111 -434 -151q231 -161 348 -209q117 -47 117 -170q0 -153 -117 -273q-155 -155 -450 -155q-310 0 -561 112 q-306 135 -203 318zM596 1133q0 -64 45 -106t117 -42q63 0 112.5 42t49.5 108q0 72 -44.5 111.5t-119.5 39.5q-62 0 -107.5 -43t-52.5 -110zM831 266q0 -67 49.5 -114.5t125.5 -47.5q73 0 122.5 47.5t49.5 112.5q0 72 -51 119t-121 47q-73 0 -124 -48t-51 -116z" />
<glyph unicode="9" horiz-adv-x="1390" d="M51 1067q0 173 166 281q163 106 399 106q299 0 510 -205t211 -497q0 -284 -182 -516q-160 -201 -500 -406l-528 252q358 146 827 606q-350 -3 -350 76q-65 -33 -147 -33q-157 0 -281 100q-125 101 -125 236zM410 1102q0 -61 45.5 -101t107.5 -40q66 0 109 43t43 100 q0 62 -45.5 102.5t-108.5 40.5q-64 0 -107.5 -40t-43.5 -105z" />
<glyph unicode=":" horiz-adv-x="706" d="M59 881q0 107 80 184q81 78 201 78q132 0 211 -88q72 -78 72 -174q0 -122 -88 -195q-87 -72 -228 182q-102 -256 -180 -166q-68 77 -68 179zM72 199q0 110 78 188t229 -141q102 218 184 131q72 -78 72 -176q0 -119 -90 -197q-79 -67 -191 -67q-130 0 -213 86 q-69 72 -69 176z" />
<glyph unicode=";" horiz-adv-x="667" d="M47 209q0 101 82 168q81 69 197 69q119 0 204 -79q86 -77 86 -199q0 -165 -167 -295q-169 -135 -381 -135q96 125 96 262l-2 35q-50 11 -82.5 59t-32.5 115zM59 881q0 107 80 184q81 78 203 -164q129 243 209 154q72 -78 72 -174q0 -122 -88 -195q-87 -72 -195 -72 q-137 0 -213 88q-68 77 -68 179z" />
<glyph unicode="&#x3c;" horiz-adv-x="1103" d="M98 477l824 373l51 -227l-479 -136l542 -96l-28 -248l-815 156z" />
<glyph unicode="=" horiz-adv-x="1103" d="M113 143v213l831 35v-198zM145 623l54 227l854 -29l-109 -227z" />
<glyph unicode="&#x3e;" horiz-adv-x="1103" d="M143 649v236l869 -236l-82 -293l-719 -213l-29 248l445 154z" />
<glyph unicode="?" horiz-adv-x="1120" d="M106 1608q197 90 467 90q216 0 351 -72q143 -79 143 -231t-125 -250q-56 -44 -240 -125q-129 -58 -129 -102q0 -54 78 -54q38 0 81 15.5t69 38.5l80 -265q-113 -78 -303 -178q-150 104 -183 172q-35 75 -35 172q217 114 91 123q-90 6 -89 36q2 14 17 30q0 30 -17 57 q-21 35 -63 35q-32 0 -72.5 -20t-66.5 -50zM315 106q0 82 68 150t164 68q90 0 160 -64q71 -62 71 -154q0 -81 -65 -149t-168 -68q-84 0 -154 58q-76 64 -76 159z" />
<glyph unicode="@" horiz-adv-x="1693" d="M39 715q0 305 252 516q251 211 596 211q280 0 491 -166q211 -163 211 -408q0 -195 -137 -338q-136 -145 -326 -145q-59 0 -95.5 11.5t-94.5 47.5l2 62q-77 -68 -176 -68q-148 0 -219 105q-54 79 -54 162q0 110 80 190q83 80 199 80q105 0 180 -64l2 47l172 23l-10 -256 q0 -147 70 -147q72 0 116 77q35 65 35 158q0 156 -137 260q-138 105 -319 105q-227 0 -390 -138q-161 -136 -161 -335q0 -196 141 -334q150 -150 401 -150q222 0 346 39q163 52 271 184l106 -198q-148 -145 -338 -203q-165 -47 -407 -47q-374 0 -596 207q-211 199 -211 512z M645 694q0 -41 35.5 -69.5t83.5 -28.5q50 0 86 25q41 30 41 94q0 34 -37.5 58t-83.5 24q-48 0 -86.5 -30.5t-38.5 -72.5z" />
<glyph unicode="A" d="M0 -63l217 1636l703 -459l612 -1083l-496 10l-334 336h-360l287 -314zM322 602l329 -10l-219 520z" />
<glyph unicode="B" horiz-adv-x="1466" d="M33 1266q120 62 313 102q191 43 381 43q256 0 397 -72q158 -84 158 -256q0 -121 -154 -278q154 -35 224 -94q98 -82 98 -224q0 -225 -268 -385q-246 -147 -543 -147q-155 0 -268 25q-107 24 -234 98l-41 981zM324 522l38 -231q107 0 199 53q101 58 101 133q0 50 -31 72 q-112 12 -115 29q-117 0 -192 -56zM623 1153l34 -303q111 0 205 61q96 66 96 148q0 58 -67 104q-52 37 -127 37q-50 0 -81 -9.5t-60 -37.5z" />
<glyph unicode="C" horiz-adv-x="1222" d="M10 625q0 321 228 549q226 229 530 229q94 0 155.5 -13t135.5 -51l-209 -331q-83 77 -172 77q-101 0 -176 -100q-73 -102 -322 -166q239 -177 318 -246q37 -32 37 -116q0 -76 -31 -195q240 219 344 219q14 0 26 -4t22 -4q34 -1 50 41q17 43 16 130q0 24 -1 52l262 -540 q-268 -226 -564 -226q-272 0 -460 197q-189 198 -189 498z" />
<glyph unicode="D" horiz-adv-x="1521" d="M63 1294q296 101 629 101q364 0 565 -148q222 -165 222 -485q0 -363 -332 -606q-317 -234 -744 -234q-142 0 -253 29zM217 1081l234 -802l350 288q58 -6 100 -6q102 1 120 37q4 8 4 17q0 54 -124 163q89 124 89 186q0 14 -4 25q-16 37 -85 37q-40 0 -98 -12 q-85 61 -586 67z" />
<glyph unicode="E" horiz-adv-x="1126" d="M31 1403l895 104l22 -301l-475 -51l-274 -41l616 -209l248 -69l-447 -244l-274 -182l717 110l31 -571l-947 114z" />
<glyph unicode="F" horiz-adv-x="1058" d="M133 51v1393l1092 -19l-17 -114l-735 -324l23 -237l458 135l-94 -469l-297 -31l10 -477z" />
<glyph unicode="G" horiz-adv-x="1742" d="M31 696q0 289 209 498q212 209 510 209q197 0 313 -39q38 -12 88 -12q107 0 272 57l-198 -311q-194 -96 -280 -96q-27 0 -44 10q-61 28 -96 28q-115 0 -187 -96q-71 -95 -71 -239q0 -148 67 -261q62 -102 164 -102q83 0 147 58t81 151l-201 -21l-12 220l882 114l13 -239 l-187 -33q0 -265 -219 -457q-217 -190 -510 -190q-301 0 -522 221q-219 227 -219 530z" />
<glyph unicode="H" horiz-adv-x="1345" d="M90 -31l199 1915l362 -430l-35 -737l199 -10l23 563l352 499l33 -1810l-359 238l-125 219l-231 -21l-111 -280z" />
<glyph unicode="I" horiz-adv-x="1568" d="M106 428h326v86q0 65 2 102q0 126 -4 244q-4 106 -16 184l-275 -26l690 571l504 295l191 -821l-439 -8q-54 -533 -71 -609q133 -13 151 -14q78 -4 211 -4l-16 -475q-1 -1 17.5 -9t58 -23t96.5 -36q-335 65 -492 172q-154 107 -518 222q-267 -74 -374 -74q-72 0 -72 34 q0 50 30 189z" />
<glyph unicode="J" horiz-adv-x="1773" d="M20 440l535 232q27 -221 143 -221q117 0 117 157q0 27 -3.5 68.5t-7.5 74.5t-12 96t-12 95l-440 -10l-51 657l1431 -151v-437l-346 -28q-88 -486 -252 -742q-197 -305 -518 -305q-198 0 -350 140q-133 127 -234 374z" />
<glyph unicode="K" horiz-adv-x="1708" d="M111 63l32 1340l289 22l180 -753l416 884l606 -309l-608 -594l639 -569l-717 -125l-362 447l-144 -498z" />
<glyph unicode="L" horiz-adv-x="1169" d="M66 1352l997 8l-457 -987l457 332l63 -736l-1015 -43z" />
<glyph unicode="M" horiz-adv-x="2449" d="M43 31l276 1405l584 -33l287 -649l455 544l495 64l252 -1425l-627 86l-67 808l-545 -225l289 -393l-836 661l-12 -897z" />
<glyph unicode="N" horiz-adv-x="1708" d="M78 176l33 1051l518 145l387 -686v602l672 156l-408 -1600l-717 863v-676z" />
<glyph unicode="O" horiz-adv-x="1755" d="M43 702q0 333 221 574q230 248 565 248v-56q418 0 656 -215q223 -204 223 -540q0 -299 -260 -498t-619 -199q-327 0 -557 199q-229 198 -229 487zM412 608q0 -117 92 -194q93 -78 233 -78q54 -5 96 -5q157 0 160 70q3 93 396 271q-397 65 -453 133q-75 85 -377 358 l94 -245q-107 -24 -174 -103q-67 -82 -67 -207zM653 918l15 4v-41z" />
<glyph unicode="P" horiz-adv-x="1579" d="M66 1352q260 59 501 59q428 0 680 -147q275 -160 275 -463q0 -223 -172 -355q-168 -131 -424 -131q-114 0 -209 29l88 -367l-596 -61zM252 1130l270 -573q297 152 375 217q86 71 86 172q0 66 -56.5 109t-142.5 43q-76 0 -532 32z" />
<glyph unicode="Q" horiz-adv-x="1775" d="M90 645q0 299 256 543q255 246 561 246q245 0 416 -136q186 -149 186 -417q0 -121 -51 -269l561 76l-524 -967l-215 549q-135 -156 -205 -219q-162 -143 -391 -143q-278 0 -436 198q-158 202 -158 539zM582 596q0 -108 54.5 -171t145.5 -63q112 0 179 107l-123 82 l145 227l197 -61q12 38 12 63q0 78 -63 138.5t-154 60.5q-141 0 -266 -119q-127 -118 -127 -264z" />
<glyph unicode="R" horiz-adv-x="1599" d="M27 1341q120 52 311 82q185 33 367 33q349 0 460 -102q70 -64 70 -234q0 -185 -184 -360l931 -236l-966 -585l-311 606l-203 -123l61 -393l-407 -148zM455 1049l94 -244q130 42 199 94q90 69 90 148q0 47 -25.5 77.5t-77.5 34.5q-35 0 -92.5 -23t-187.5 -87z" />
<glyph unicode="S" horiz-adv-x="1634" d="M-4 182l268 467q76 -85 221 -141q143 -55 295 -55q96 0 150.5 26t54.5 78q0 128 -205 195l-381 104q-206 77 -206 223q0 165 192 256q156 73 432 103q196 21 463 250l-23 -535q-118 41 -204 59q-67 15 -129 15q-152 0 -152 -109q0 -16 238 -43t379 -117 q215 -138 215 -438q0 -264 -242 -436q-230 -166 -569 -166q-285 0 -447 51q-185 59 -350 213z" />
<glyph unicode="T" horiz-adv-x="1368" d="M66 778l51 414l1163 561l90 -754l-307 -81l-74 -844l-287 -58l37 918z" />
<glyph unicode="U" horiz-adv-x="1447" d="M66 829q0 331 90 615l512 342q-26 -516 -45 -637q-15 -94 -15 -229q0 -178 -114 -246q-43 -25 -43 -83q0 -99 127 -296q36 -2 70 -2q196 -1 275 85q54 59 54 158q0 70 -27 160q54 148 54 410q0 94 -5 182q-3 44 -16 137l406 377q-50 -830 -78 -1102q-41 -385 -164 -579 q-149 -236 -440 -236q-320 0 -488 269q-153 249 -153 675z" />
<glyph unicode="V" horiz-adv-x="1282" d="M90 1247l342 309l184 -954l357 1200l383 -420l-762 -1497l-363 166z" />
<glyph unicode="W" horiz-adv-x="2084" d="M20 1317l648 649l-13 -1280l588 854l27 -823l405 856l436 -438l-751 -1219l-440 428l-617 -506z" />
<glyph unicode="X" horiz-adv-x="1820" d="M0 1114l750 268l223 -907l461 916l385 -234l-443 -461l299 -450l-323 -230l-217 344l-805 -479l-273 344l682 332z" />
<glyph unicode="Y" horiz-adv-x="1732" d="M23 1196l266 246l540 -1131l594 1010l285 -199l-485 -497v-688l-705 -41l-10 757z" />
<glyph unicode="Z" horiz-adv-x="1888" d="M31 63l960 822l-848 92l37 514l1352 -4l-830 -1127l1106 160l23 -635z" />
<glyph unicode="[" horiz-adv-x="694" d="M0 -322l68 1823l528 43l-18 -264l-240 -27l-39 -1319l250 17l-21 -238z" />
<glyph unicode="\" horiz-adv-x="1284" d="M-8 1380l332 9l913 -1539l-301 -18z" />
<glyph unicode="]" horiz-adv-x="761" d="M0 -346l29 299l270 10l57 1309l-348 -19l31 265l625 26l-86 -1845z" />
<glyph unicode="^" horiz-adv-x="1212" d="M31 635l483 561l627 -475l-242 -238l-356 361l-328 -385z" />
<glyph unicode="_" horiz-adv-x="901" d="M-23 -205h955l-31 -164h-907z" />
<glyph unicode="`" horiz-adv-x="905" d="M141 1454l138 156l473 -219l-117 -127z" />
<glyph unicode="a" horiz-adv-x="1523" d="M-31 63l572 1455l385 -105l643 -1298l-500 -260l-174 342l-279 -72l-174 -313zM586 457h309l-168 530z" />
<glyph unicode="b" horiz-adv-x="1368" d="M121 63v1248q309 96 549 96q235 0 366 -76q144 -83 144 -250q0 -72 -45 -129q-44 -56 -209 -151q161 -15 274 -99q125 -88 125 -223q0 -242 -219 -393q-207 -143 -518 -143q-280 0 -467 120zM442 893q20 -14 54 -14q92 0 178 53q88 52 88 127q0 59 -46 89t-126 30 q-92 0 -148 -33v-252zM674 311q24 -4 49 -4q72 0 116 42t44 108q0 56 -52 98.5t-116 42.5q-20 0 -41 -6v-281z" />
<glyph unicode="c" horiz-adv-x="1257" d="M43 653q0 329 172 553q182 238 469 238q124 0 168 -8q51 -6 141 -43v-574q-54 31 -131 31q-106 0 -188 -49q-80 -50 -80 -135q0 -69 75 -118.5t183 -49.5q121 0 174 73l197 -487q-103 -92 -209.5 -134t-241.5 -42q-306 0 -518 215q-211 217 -211 530z" />
<glyph unicode="d" horiz-adv-x="1665" d="M31 1311q134 69 304.5 110t340.5 41q385 0 616 -147q189 -121 271 -328q61 -152 61 -332q0 -289 -334 -497q-323 -203 -735 -203q-164 0 -279 35zM762 967l31 -457q140 0 247 70q109 71 109 174q4 28 4 41q0 68 -63 108q-94 64 -328 64z" />
<glyph unicode="e" horiz-adv-x="1112" d="M111 1352l938 73l-13 -542l-571 -19v-157l317 10v-187l-254 -20v-145l478 -11l30 -270l-880 -168z" />
<glyph unicode="f" horiz-adv-x="991" d="M133 -104v1517h838l12 -217h-442l14 -303h317l-34 -447l-260 -20v-436z" />
<glyph unicode="g" horiz-adv-x="1335" d="M18 707q0 276 240 507q242 230 547 230q106 0 166 -17q57 -16 166 -75l-88 -510q-72 78 -211 78q-145 0 -267 -84q-118 -81 -118 -201q0 -136 92 -236q96 -96 237 -96q23 23 29 84q0 38 -3 55t-15 37l-164 -10l-23 207l697 84q-41 -421 -150 -617q-137 -247 -426 -247 q-299 0 -498 217q-211 230 -211 594z" />
<glyph unicode="h" horiz-adv-x="1568" d="M90 1247l473 82v-477h309l164 645l465 -84l-176 -1464l-510 74l45 516l-342 -93l68 -538l-430 133z" />
<glyph unicode="i" horiz-adv-x="772" d="M111 -115v1508l548 43v-1487z" />
<glyph unicode="j" horiz-adv-x="1488" d="M16 596q0 70 7 111h442l-8 -39q-2 -10 -2 -45q0 -125 161 -125q197 0 197 229q0 232 -174 594l606 145q80 -124 125 -288t45 -336q0 -389 -188 -645q-197 -271 -531 -271q-300 0 -491 185q-189 186 -189 485z" />
<glyph unicode="k" horiz-adv-x="1665" d="M121 -63v1476l651 12l-113 -491l543 563l320 -364l-463 -437l575 -571l-344 -332l-563 613l23 -375z" />
<glyph unicode="l" horiz-adv-x="1185" d="M102 1419l488 13v-801l530 35v-701l-964 -39z" />
<glyph unicode="m" horiz-adv-x="2187" d="M27 145l489 1407l565 -729l475 609l656 -1420l-797 84l-14 557l-449 -579l-256 579l-221 -678z" />
<glyph unicode="n" horiz-adv-x="1507" d="M115 -133v1575l825 -580l-115 631l576 -221v-1356l-811 823l221 -764z" />
<glyph unicode="o" horiz-adv-x="1411" d="M66 645q0 333 184 563q196 246 500 246q269 0 452 -219q182 -218 182 -530q0 -106 -34 -242q-59 -222 -179 -354q-165 -183 -421 -183q-287 0 -486 211q-198 210 -198 508zM526 729q0 -75 49.5 -125.5t122.5 -50.5q97 0 185 98q90 101 90 201q0 68 -49.5 117t-118.5 49 q-99 0 -182 -74q-97 -85 -97 -215z" />
<glyph unicode="p" horiz-adv-x="1312" d="M115 -61v1359q317 140 594 140q268 0 417 -113q160 -121 160 -354q0 -257 -160 -414q-161 -158 -417 -158v-460h-594zM616 618q38 -10 80 -10q109 0 191 58q84 60 84 137q-6 66 -56 119q-64 67 -165 67q-73 0 -134 -43v-328z" />
<glyph unicode="q" horiz-adv-x="1851" d="M51 692q0 312 207 545q204 229 514 229q277 0 490 -219q215 -218 215 -497q0 -119 -50 -228q7 -3 23 -10.5t24 -11t21 -8t25 -6.5t24 -3q59 0 97.5 43t56.5 140q141 -179 141 -365q0 -153 -108 -270q-109 -115 -252 -115q-189 0 -332 168q-106 -88 -193.5 -123 t-208.5 -35q-295 0 -495 226q-199 224 -199 540zM512 831q0 -104 78 -188q76 -82 198 -82q113 0 182.5 68t69.5 178q0 103 -65 180q-76 94 -207 94q-105 0 -182 -71q-74 -71 -74 -179z" />
<glyph unicode="r" horiz-adv-x="1595" d="M66 1358q91 51 224 79.5t279 28.5q311 0 498 -106q205 -114 205 -316q0 -239 -320 -401l643 -268l-475 -484l-555 558l-129 -498h-321zM489 1067l52 -303q36 -4 39 -4q73 0 126.5 51.5t53.5 124.5q0 61 -59 106t-134 45q-42 0 -78 -20z" />
<glyph unicode="s" horiz-adv-x="1480" d="M51 84l271 426q77 -170 294 -170q137 0 211 48.5t74 146.5q0 69 -186 124q-282 82 -348 117q-187 94 -187 256q0 175 223 297q223 125 498 125q158 0 270 -31q105 -26 230 -112l-254 -340q-21 74 -74 115.5t-133 41.5q-95 0 -157 -35t-62 -100q0 -56 186 -108 q248 -71 348 -140q187 -126 187 -358q0 -226 -262 -383q-247 -149 -590 -149q-149 0 -258 47q-101 43 -281 182z" />
<glyph unicode="t" horiz-adv-x="1236" d="M10 1278l1192 188l21 -374l-252 -43l-111 -1141l-508 143v936l-262 -31z" />
<glyph unicode="u" horiz-adv-x="1501" d="M70 1014q0 225 51 430l612 -174v-203q0 -563 119 -563q95 0 147 136.5t52 369.5q0 226 -35 383l420 -64q0 -339 -43 -661q-44 -323 -185 -529q-170 -243 -446 -243q-317 0 -510 331q-182 317 -182 787z" />
<glyph unicode="v" horiz-adv-x="1480" d="M39 1419h733l-39 -897l297 811l436 -231l-694 -1198l-348 35z" />
<glyph unicode="w" horiz-adv-x="1916" d="M39 1432l477 -25l139 -606l271 387l129 -483l411 557l490 -244l-864 -1176l-320 680l-348 -618z" />
<glyph unicode="x" horiz-adv-x="1839" d="M-27 328l478 364l-412 314l397 352l426 -352l514 497l475 -362l-344 -328l344 -268l-514 -510l-331 268l-451 -436z" />
<glyph unicode="y" horiz-adv-x="1839" d="M0 909l401 510l705 -461l309 388l426 -279l-440 -557v-643l-797 49v619z" />
<glyph unicode="z" horiz-adv-x="1595" d="M66 328l718 643l-643 -109v461l1080 119l272 -424l-528 -619l528 37l78 -461l-1430 -71z" />
<glyph unicode="{" horiz-adv-x="808" d="M0 659q51 29 70 46q69 54 69 104v522q0 90 162 148q159 57 414 57q0 -36 -15 -150l-6 -55q-186 0 -248 -39q-51 -29 -51 -102v-381q0 -58 -69 -109q-28 -20 -66 -41q40 -25 66 -47q69 -57 69 -104l8 -313q0 -94 39 -123q43 -29 185 -29l8 -219q-277 0 -387 43 q-109 41 -109 135v506q0 45 -69 102q-18 16 -70 49z" />
<glyph unicode="|" horiz-adv-x="395" d="M90 -422v1872l211 18v-1863z" />
<glyph unicode="}" horiz-adv-x="808" d="M33 1538q269 0 399.5 -54t130.5 -153v-522q0 -47 70 -102q29 -25 69 -48q-44 -25 -69 -47q-70 -58 -70 -104v-506q0 -95 -110 -135q-110 -43 -385 -43l8 219q140 0 182 31q41 30 41 121l10 313q0 43 68 102q27 23 67 49q-35 18 -67 41q-68 53 -68 109v381q0 76 -30 100 q-50 41 -226 41z" />
<glyph unicode="~" horiz-adv-x="1325" d="M86 733q0 129 109 244t245 115q76 0 185 -127t176 -127q2 0 30 4q223 43 267 250l157 -185q0 -154 -120 -274q-120 -117 -289 -117q-103 0 -215 127q-108 129 -176 129q-88 0 -146 -67q-59 -68 -59 -156q0 -7 4 -43l-158 151q-10 49 -10 76z" />
<glyph unicode="&#xa1;" horiz-adv-x="1214" d="M70 176l374 854l572 -164l-187 -929zM608 1270q0 118 90 196q83 68 193 68q128 0 211 -86q69 -72 69 -176q0 -114 -78 -190t-200 -76q-131 0 -213 88q-72 78 -72 176z" />
<glyph unicode="&#xa2;" horiz-adv-x="882" d="M115 506q0 182 98 307q100 127 256 127q58 0 90 -5.5t78 -23.5v-315q-26 16 -72 16q-64 0 -104.5 -26t-40.5 -74q0 -39 40 -65.5t101 -26.5q64 0 94 41l109 -268q-111 -99 -248 -99q-171 0 -287 119q-114 120 -114 293zM365 1026l2 184l241 21v-236zM375 43l241 -10v-152 l-239 -26z" />
<glyph unicode="&#xa3;" horiz-adv-x="1472" d="M-8 459l37 219l135 35l47 227q41 194 207 326q165 131 375 131q225 0 374 -107q169 -123 199 -364l-332 -76q0 147 -84 194q-56 29 -184 29q-93 0 -159 -39.5t-79 -109.5l-26 -168l385 53l-39 -229l-406 -52l-39 -176l906 78l-39 -324l-1270 -106l117 483z" />
<glyph unicode="&#xa4;" horiz-adv-x="1433" d="M23 971l251 246l154 -123q92 34 117 39q48 10 131 10q97 0 207 -35l125 98l270 -221l-127 -98q38 -54 45 -80q16 -46 16 -121q0 -56 -11 -97t-38 -89l109 -88l-273 -219l-104 86q-127 -48 -219 -48q-84 0 -148 11q-48 11 -125 47l-124 -107l-252 244l129 102 q-39 74 -39 158q0 73 6 94q6 23 33 82zM424 694q0 -76 65 -135q63 -57 152 -57q94 0 160.5 56.5t66.5 135.5q0 74 -66 127t-155 53t-155 -51q-68 -53 -68 -129z" />
<glyph unicode="&#xa5;" horiz-adv-x="1550" d="M-8 1346l393 43l317 -449l347 424l407 25l-512 -609l182 2l9 -166l-273 -8l-8 -104l272 6l9 -168l-297 -8l-29 -264l-367 -43l27 297l-266 -7l-10 166l294 11l7 106l-291 -12l-10 168l247 6z" />
<glyph unicode="&#xa6;" horiz-adv-x="395" d="M72 -209v770l213 19v-762zM72 754v770l213 18v-762z" />
<glyph unicode="&#xa7;" horiz-adv-x="1550" d="M-29 158l146 188q36 -53 103.5 -83t144.5 -30q76 0 155 33q86 35 86 66q0 27 -266 88q-264 62 -264 164q0 127 157 219q117 69 170 69q-6 15 -6 33q0 96 160 182q183 101 451 101q248 0 436 -141l-203 -166q-106 75 -231 75q-78 0 -164 -24q-84 -21 -84 -53 q0 -20 186 -50q192 -28 291 -67q166 -64 166 -176q0 -96 -102 -164q-131 -88 -254 -88q-86 -160 -249.5 -244t-385.5 -84q-238 0 -443 152zM434 604q0 -45 125 -72q41 -9 123 -18q70 0 154 23q79 24 79 51q0 43 -63 68.5t-178 25.5q-102 0 -171 -19.5t-69 -58.5z" />
<glyph unicode="&#xa8;" horiz-adv-x="739" d="M49 1554l211 62l6 -193l-172 -28zM399 1421l7 183h258l-99 -201z" />
<glyph unicode="&#xa9;" horiz-adv-x="1900" d="M57 741q0 362 248 613q248 254 623 254q373 0 622 -252q250 -253 250 -615q0 -367 -239 -612q-245 -254 -633 -254q-385 0 -629 250q-242 248 -242 616zM188 745q0 -318 199 -526q207 -219 541 -219q330 0 534 213q205 214 205 532q0 315 -211 529q-209 215 -528 215 t-531 -215q-209 -215 -209 -529zM463 700q0 235 162 400q163 166 385 166q77 0 131 -13q31 -7 80 -32l-152 -242q-58 55 -123 55q-75 0 -128.5 -71t-53.5 -181q0 -73 51.5 -118.5t130.5 -45.5q73 0 126 34t77 100l190 -392q-190 -161 -407 -161q-196 0 -334 141 q-135 144 -135 360z" />
<glyph unicode="&#xaa;" horiz-adv-x="761" d="M-8 748h661l11 -168h-664zM8 1087q0 114 78 195q80 80 209 80q100 0 178 -66l4 50l172 20l-24 -520l-166 -21l6 64q-80 -68 -184 -68q-112 0 -193 78q-80 80 -80 188zM168 1077q0 -96 121 -96q125 0 125 117q-4 37 -38.5 60.5t-82.5 23.5q-50 0 -87.5 -30.5t-37.5 -74.5z " />
<glyph unicode="&#xab;" horiz-adv-x="1800" d="M131 604l592 514l184 -162l-391 -329l391 -269l-168 -211zM909 604l594 514l185 -162l-394 -329l394 -269l-170 -211z" />
<glyph unicode="&#xad;" horiz-adv-x="1705" d="M281 639l692 49l18 -199l-676 -12z" />
<glyph unicode="&#xae;" horiz-adv-x="1847" d="M57 741q0 362 248 613q248 254 623 254q373 0 622 -252q250 -253 250 -615q0 -367 -239 -612q-245 -254 -633 -254q-385 0 -629 250q-242 248 -242 616zM188 745q0 -318 199 -526q207 -219 541 -219q330 0 534 213q205 214 205 532q0 315 -211 529q-209 215 -528 215 t-531 -215q-209 -215 -209 -529zM496 1178q85 30 194 49q114 20 228 20q172 0 258 -65q71 -56 71 -144q0 -117 -114 -223l362 -252l-385 -258l-192 377l-127 -78l38 -244l-251 -92zM762 995l61 -153q75 28 121 59q55 40 55 92q0 70 -61 70q-17 0 -42 -8t-40.5 -15t-51 -24.5 t-42.5 -20.5z" />
<glyph unicode="&#xaf;" horiz-adv-x="833" d="M96 1460l2 113l639 16l19 -116z" />
<glyph unicode="&#xb0;" horiz-adv-x="733" d="M16 1153q0 99 84 168q86 68 203 68q109 0 195 -68t86 -168q0 -101 -88 -168t-203 -67q-128 0 -202.5 64.5t-74.5 170.5zM174 1167q0 -45 32 -77.5t79 -32.5q49 0 83.5 29.5t34.5 70.5q0 90 -110 90q-51 0 -85 -21.5t-34 -58.5z" />
<glyph unicode="&#xb1;" horiz-adv-x="1087" d="M90 547l23 223l346 55l39 383l254 21l-37 -387l368 55l-39 -217l-346 -51l-30 -322l-254 -28l39 323zM104 225l838 51l23 -206l-822 -13z" />
<glyph unicode="&#xb2;" horiz-adv-x="765" d="M51 1098v393q47 8 129 8q169 0 279 -45q141 -56 141 -162q0 -114 -76 -184q-24 -24 -143 -107l205 -18v-268l-391 37l-84 135q71 71 92 98q22 28 22 68q0 80 -80 80q-41 0 -94 -35z" />
<glyph unicode="&#xb3;" horiz-adv-x="765" d="M20 788l121 201q75 -96 176 -96q36 0 58 17.5t22 43.5q0 64 -151 119q31 15 41.5 20.5t33.5 19.5t32 25t9 23q0 29 -19.5 50.5t-55.5 21.5q-47 0 -99 -21q-48 -21 -104 -53l-18 291q103 33 235 33q177 0 286 -58.5t109 -162.5q0 -57 -42.5 -101t-133.5 -82 q96 -66 96 -168q0 -88 -77 -141q-88 -61 -263 -61q-86 0 -135 14q-57 17 -121 65z" />
<glyph unicode="&#xb4;" horiz-adv-x="905" d="M154 1391l473 219l137 -156l-494 -190z" />
<glyph unicode="&#xb5;" horiz-adv-x="991" d="M45 -164q40 52 74 133q35 84 35 123q0 15 -2 17q-107 192 -107 471q0 232 64 430l362 -80q-45 -113 -45 -287q0 -272 115 -272q159 0 159 403v60q0 86 -14 163h250q0 -335 -18 -499q-30 -266 -117 -410q-107 -168 -305 -168q-55 0 -74 8l-62 31q-2 -34 -16 -94 q-24 -109 -113 -133z" />
<glyph unicode="&#xb6;" horiz-adv-x="1261" d="M-12 981q0 253 217 367q172 90 454 90q157 0 345 -27q58 -9 153 -27l-70 -1564l-210 -27l28 805l-190 -18l-31 -760l-213 -27l31 778q-266 0 -352 45q-162 82 -162 365z" />
<glyph unicode="&#xb7;" horiz-adv-x="563" d="M182 487q0 36 27.5 61t64.5 25q38 0 64.5 -25.5t26.5 -60.5t-26.5 -60.5t-64.5 -25.5q-37 0 -64.5 25t-27.5 61z" />
<glyph unicode="&#xb8;" horiz-adv-x="1492" d="M551 -254l94 43q12 -41 74 -41q31 0 46 12.5t15 46.5q0 45 -45 54q-43 6 -82 6q-22 0 -26 -2l32 198h125l-34 -88q8 -3 12 -10q3 -9 51 -18q48 -7 77.5 -52t29.5 -104q0 -63 -60 -104t-137 -41q-55 0 -102 27t-70 73z" />
<glyph unicode="&#xb9;" horiz-adv-x="538" d="M-39 1061l201 440l303 -82l-92 -667l-221 16l-58 293h-133z" />
<glyph unicode="&#xba;" horiz-adv-x="800" d="M-8 748h672l12 -168h-676zM8 1118q0 119 101 195q103 80 235 80q123 0 223 -80q101 -79 101 -195q0 -114 -99 -194q-101 -78 -229 -78q-130 0 -234 78q-98 76 -98 194zM195 1120q10 -68 39.5 -90t91.5 -22q84 0 118 57q9 19 15 57q0 47 -37.5 78t-91.5 31 q-64 0 -104.5 -30t-30.5 -81z" />
<glyph unicode="&#xbb;" horiz-adv-x="1771" d="M178 354l391 269l-391 329l184 162l592 -514l-608 -455zM850 354l393 269l-393 329l186 162l592 -514l-608 -455z" />
<glyph unicode="&#xbc;" horiz-adv-x="1476" d="M-37 -70l909 1389l160 -229l-954 -1194zM6 1061l201 440l303 -82l-92 -667l-221 16l-58 293h-133zM707 168l149 506l295 67l156 -503l75 -25l-12 -133h-102v-129h-322v172zM870 283l166 -27l-14 233z" />
<glyph unicode="&#xbd;" horiz-adv-x="1478" d="M-37 -70l909 1389l160 -229l-954 -1194zM6 1061l201 440l303 -82l-92 -667l-221 16l-58 293h-133zM809 328v393q47 8 129 8q169 0 279 -45q139 -56 139 -162q0 -113 -74 -184q-26 -26 -145 -107l206 -18v-268l-393 37l-82 135q76 75 93 98q22 28 22 68q0 79 -80 79 q-45 0 -94 -34z" />
<glyph unicode="&#xbe;" horiz-adv-x="1734" d="M20 788l121 201q75 -96 176 -96q36 0 58 17.5t22 43.5q0 64 -151 119q31 15 41.5 20.5t33.5 19.5t32 25t9 23q0 29 -19.5 50.5t-55.5 21.5q-47 0 -99 -21q-48 -21 -104 -53l-18 291q103 33 235 33q177 0 286 -58.5t109 -162.5q0 -57 -42.5 -101t-133.5 -82 q96 -66 96 -168q0 -88 -77 -141q-88 -61 -263 -61q-86 0 -135 14q-57 17 -121 65zM248 -61l907 1388l158 -229l-951 -1194zM965 174l147 506l295 68l156 -504l77 -25l-14 -133h-100v-129h-324v172zM1126 289l166 -27l-12 234z" />
<glyph unicode="&#xbf;" horiz-adv-x="1120" d="M104 190q0 152 125 250q56 44 240 125q127 59 127 103q0 53 -76 53q-39 0 -80.5 -15t-66.5 -38l-82 264q113 78 295 78q162 0 260 -55t98 -160q0 -15 -4 -30t-14.5 -32.5t-17.5 -29t-26 -32.5t-27 -29.5t-32 -33t-30 -30.5q0 -36 20.5 -64.5t58.5 -28.5q32 0 73.5 20 t66.5 50l53 -578q-197 -90 -469 -90q-213 0 -348 72q-144 79 -144 231zM395 1266q0 82 64 149q65 68 168 68q81 0 155 -62q74 -59 74 -155q0 -82 -68 -150q-67 -67 -163 -67q-88 0 -156 59q-74 65 -74 158z" />
<glyph unicode="&#xc0;" d="M0 -63l217 1636l703 -459l612 -1083l-496 10l-334 336h-360l287 -314zM295 1745l137 156l473 -220l-117 -127zM322 602l329 -10l-219 520z" />
<glyph unicode="&#xc1;" d="M0 -63l217 1636l703 -459l612 -1083l-496 10l-334 336h-360l287 -314zM322 602l329 -10l-219 520zM666 1675l473 219l137 -155l-494 -191z" />
<glyph unicode="&#xc2;" d="M0 -63l217 1636l703 -459l612 -1083l-496 10l-334 336h-360l287 -314zM322 602l329 -10l-219 520zM420 1696l377 172l329 -172l-213 -137l-116 137l-260 -137z" />
<glyph unicode="&#xc3;" d="M0 -63l217 1636l703 -459l612 -1083l-496 10l-334 336h-360l287 -314zM225 1706l377 172l189 -141l208 141l62 -139l-342 -170l-117 137l-260 -137zM322 602l329 -10l-219 520z" />
<glyph unicode="&#xc4;" d="M0 -63l217 1636l703 -459l612 -1083l-496 10l-334 336h-360l287 -314zM322 602l329 -10l-219 520zM379 1714l211 62l6 -193l-172 -29zM729 1581l6 182h258l-98 -200z" />
<glyph unicode="&#xc5;" d="M0 -63l387 1570l606 -94l539 -1382l-496 10l-121 375h-219l-67 -353zM494 1698q0 67 57.5 112t140.5 45q75 0 132 -45.5t57 -111.5q0 -67 -58 -112.5t-141 -45.5q-75 0 -131.5 46.5t-56.5 111.5zM573 635l330 -10l-219 520zM602 1704q0 -26 22 -48t48 -22q35 0 61.5 20 t26.5 46q0 25 -22.5 43t-51.5 18q-34 0 -59 -16t-25 -41z" />
<glyph unicode="&#xc6;" horiz-adv-x="2091" d="M-47 -63l754 1570l489 -80l676 80l22 -301l-475 -51l35 -272l307 22l35 -229l-233 -84l22 -105l420 33l31 -571l-705 86l-319 6l-35 375h-217l-150 -353zM690 635l326 -10l-96 520z" />
<glyph unicode="&#xc7;" horiz-adv-x="1222" d="M10 625q0 321 228 549q226 229 530 229q94 0 155.5 -13t135.5 -51l-209 -331q-83 77 -172 77q-101 0 -176 -100q-74 -103 -74 -248q0 -102 69.5 -163.5t182.5 -61.5q100 0 173 47t108 137l262 -540q-188 -159 -416 -209q49 -6 81 -52t32 -104q0 -63 -60 -104t-137 -41 q-55 0 -102 27t-70 73l94 43q12 -41 74 -41q31 0 46 12.5t15 46.5q0 45 -45 54q-43 6 -82 6q-22 0 -26 -2l10 65q-265 0 -447 197q-180 198 -180 498z" />
<glyph unicode="&#xc8;" horiz-adv-x="1126" d="M31 1403l895 104l22 -301l-475 -51l-274 -41l616 -209l248 -69l-447 -244l-274 -182l717 110l31 -571l-947 114zM143 1720l138 156l473 -219l-117 -127z" />
<glyph unicode="&#xc9;" horiz-adv-x="1126" d="M31 1403l895 104l22 -301l-475 -51l-274 -41l616 -209l248 -69l-447 -244l-274 -182l717 110l31 -571l-947 114zM270 1636l473 219l138 -155l-494 -191z" />
<glyph unicode="&#xca;" horiz-adv-x="1126" d="M31 1403l895 104l22 -301l-475 -51l-274 -41l616 -209l248 -69l-447 -244l-274 -182l717 110l31 -571l-947 114zM92 1638l377 172l330 -172l-213 -137l-117 137l-260 -137z" />
<glyph unicode="&#xcb;" horiz-adv-x="1126" d="M31 1403l895 104l22 -301l-475 -51l-274 -41l616 -209l248 -69l-447 -244l-274 -182l717 110l31 -571l-947 114zM141 1690l211 61l6 -192l-172 -29zM492 1556l6 183h258l-99 -201z" />
<glyph unicode="&#xcc;" horiz-adv-x="1568" d="M76 242q10 94 30 186h326v86q0 65 2 102q0 126 -4 244q-4 106 -16 184l-275 -26l690 571l504 295l191 -821l-439 -8q-54 -533 -71 -609q133 -13 151 -14q78 -4 211 -4l-16 -475q-1 -1 17.5 -9t58 -23t96.5 -36q-335 65 -492 172q-154 107 -518 222q-455 -126 -446 -37z M324 1665l137 156l473 -219l-117 -127z" />
<glyph unicode="&#xcd;" horiz-adv-x="1568" d="M76 242q10 94 30 186h326v86q0 65 2 102q0 126 -4 244q-4 106 -16 184l-275 -26l690 571l504 295l191 -821l-439 -8q-54 -533 -71 -609q133 -13 151 -14q78 -4 211 -4l-16 -475q-1 -1 17.5 -9t58 -23t96.5 -36q-335 65 -492 172q-154 107 -518 222q-455 -126 -446 -37z M631 1569l473 219l137 -156l-493 -190z" />
<glyph unicode="&#xce;" horiz-adv-x="1568" d="M72 57q0 209 39 371h325v86q0 28 4 102q0 126 -4 244q-3 79 -16 184l-277 -26l-30 311l1415 127v-393l-438 -8q-53 -525 -72 -609q133 -13 151 -14q82 -4 211 -4l-14 -475q-4 -2 -35 -2q-142 0 -571 39q-467 43 -688 67zM399 1589l375 172l332 -172l-213 -137l-119 137 l-258 -137z" />
<glyph unicode="&#xcf;" horiz-adv-x="1568" d="M82 57q0 217 37 371h327v86q0 46 3 102q0 96 -5 244q-4 106 -16 184l-274 -26l-33 311l1415 127v-393l-436 -8q-51 -504 -72 -609q132 -13 152 -14q78 -4 211 -4l-17 -475q-2 -2 -35 -2q-140 0 -569 39q-467 42 -688 67zM492 1677l208 62l7 -193l-170 -28zM840 1544 l8 182h258l-98 -200z" />
<glyph unicode="&#xd0;" horiz-adv-x="1521" d="M-109 772l203 12l-31 510q296 101 629 101q364 0 565 -148q222 -165 222 -485q0 -363 -332 -606q-317 -234 -744 -234q-142 0 -253 29l-44 661l-180 -2zM543 442q165 47 258 125q100 87 100 211q0 166 -98 236q-85 61 -260 61v-264l176 10l18 -198l-194 -5v-176z" />
<glyph unicode="&#xd1;" horiz-adv-x="1708" d="M78 176l33 1051l518 145l387 -686v602l672 156l-408 -1600l-717 863v-676zM475 1616l377 172l188 -141l209 141l62 -139l-342 -170l-117 137l-260 -137z" />
<glyph unicode="&#xd2;" horiz-adv-x="1755" d="M43 702q0 333 221 574q230 248 565 248v-56q418 0 656 -215q223 -204 223 -540q0 -299 -260 -498t-619 -199q-327 0 -557 199q-229 198 -229 487zM412 608q0 -117 92 -194q93 -78 233 -78q253 -24 256 65q3 93 396 271q-397 65 -453 133q-75 85 -377 358l94 -245 q-107 -24 -174 -103q-67 -82 -67 -207zM467 1681l137 156l473 -219l-116 -127zM653 918l15 4v-41z" />
<glyph unicode="&#xd3;" horiz-adv-x="1755" d="M43 702q0 333 221 574q230 248 565 248v-56q418 0 656 -215q223 -204 223 -540q0 -299 -260 -498t-619 -199q-327 0 -557 199q-229 198 -229 487zM412 608q0 -117 92 -194q93 -78 233 -78q253 -24 256 65q3 93 396 271q-397 65 -453 133q-75 85 -377 358l94 -245 q-107 -24 -174 -103q-67 -82 -67 -207zM653 918l15 4v-41zM807 1606l473 219l137 -156l-493 -190z" />
<glyph unicode="&#xd4;" horiz-adv-x="1755" d="M43 702q0 333 221 574q230 248 565 248v-56q418 0 656 -215q223 -204 223 -540q0 -299 -260 -498t-619 -199q-327 0 -557 199q-229 198 -229 487zM412 608q0 -117 92 -194q93 -78 233 -78q253 -24 256 65q3 93 396 271q-397 65 -453 133q-75 85 -377 358l94 -245 q-107 -24 -174 -103q-67 -82 -67 -207zM559 1659l377 172l330 -172l-213 -137l-117 137l-260 -137zM653 918l15 4v-41z" />
<glyph unicode="&#xd5;" horiz-adv-x="1755" d="M43 702q0 333 221 574q230 248 565 248v-56q418 0 656 -215q223 -204 223 -540q0 -299 -260 -498t-619 -199q-327 0 -557 199q-229 198 -229 487zM412 608q0 -117 92 -194q93 -78 233 -78q253 -24 256 65q3 93 396 271q-397 65 -453 133q-75 85 -377 358l94 -245 q-107 -24 -174 -103q-67 -82 -67 -207zM463 1649l377 172l188 -142l209 142l61 -140l-342 -170l-116 138l-260 -138zM653 918l15 4v-41z" />
<glyph unicode="&#xd6;" horiz-adv-x="1755" d="M43 702q0 333 221 574q230 248 565 248v-56q418 0 656 -215q223 -204 223 -540q0 -299 -260 -498t-619 -199q-327 0 -557 199q-229 198 -229 487zM412 608q0 -117 92 -194q93 -78 233 -78q253 -24 256 65q3 93 396 271q-397 65 -453 133q-75 85 -377 358l94 -245 q-107 -24 -174 -103q-67 -82 -67 -207zM584 1700l211 61l6 -192l-172 -29zM653 918l15 4v-41zM934 1567l6 182h258l-98 -201z" />
<glyph unicode="&#xd7;" horiz-adv-x="1087" d="M109 975l163 178l295 -313l242 266l141 -178l-227 -248l242 -274l-156 -183l-262 293l-275 -252l-157 172l264 244z" />
<glyph unicode="&#xd8;" horiz-adv-x="1755" d="M43 686q0 333 221 574q229 247 565 247v-55q147 0 295 -29l99 166l227 -182l-66 -90q156 -106 240 -266t84 -355q0 -298 -260 -497t-619 -199q-191 0 -356 74l-160 -174l-133 43l144 217q-131 87 -206 226.5t-75 299.5zM573 592q0 -118 95 -195q96 -78 231 -78 q117 0 187.5 79.5t70.5 213.5q0 105 -59 176q-70 82 -205 82l-64 -6v41q-118 -23 -187 -107t-69 -206z" />
<glyph unicode="&#xd9;" horiz-adv-x="1447" d="M51 829q0 331 90 615l518 -115q-65 -171 -65 -409q0 -185 41 -287.5t125 -102.5q120 0 178 166q51 140 51 410q0 112 -4 182q-4 71 -16 137h354q0 -481 -25 -725q-41 -389 -165 -579q-146 -236 -439 -236q-318 0 -489 269q-154 251 -154 675zM334 1663l137 156l473 -220 l-117 -126z" />
<glyph unicode="&#xda;" horiz-adv-x="1447" d="M66 829q0 331 90 615l512 342q-26 -516 -45 -637q-15 -94 -15 -229q0 -178 -114 -246q-116 -68 84 -379q252 -17 345 83.5t27 317.5q54 148 54 410q0 94 -5 182q-3 44 -16 137l406 377q-50 -830 -78 -1102q-41 -385 -164 -579q-149 -236 -440 -236q-320 0 -488 269 q-153 249 -153 675zM702 1589l474 219l137 -155l-494 -191z" />
<glyph unicode="&#xdb;" horiz-adv-x="1447" d="M66 829q0 331 90 615l512 342q-26 -516 -45 -637q-15 -94 -15 -229q0 -178 -114 -246q-116 -68 84 -379q252 -17 345 83.5t27 317.5q54 148 54 410q0 94 -5 182q-3 44 -16 137l406 377q-50 -830 -78 -1102q-41 -385 -164 -579q-149 -236 -440 -236q-320 0 -488 269 q-153 249 -153 675zM399 1628l377 172l330 -172l-213 -137l-117 137l-260 -137z" />
<glyph unicode="&#xdc;" horiz-adv-x="1447" d="M66 829q0 331 90 615l512 342q-26 -516 -45 -637q-15 -94 -15 -229q0 -178 -114 -246q-116 -68 84 -379q252 -17 345 83.5t27 317.5q54 148 54 410q0 94 -5 182q-3 44 -16 137l406 377q-50 -830 -78 -1102q-41 -385 -164 -579q-149 -236 -440 -236q-320 0 -488 269 q-153 249 -153 675zM432 1677l211 62l6 -193l-172 -28zM782 1544l6 182h259l-99 -200z" />
<glyph unicode="&#xdd;" horiz-adv-x="1732" d="M23 1196l266 246l540 -1131l594 1010l285 -199l-485 -497v-688l-705 -41l-10 757zM915 1581l474 219l137 -155l-494 -191z" />
<glyph unicode="&#xde;" horiz-adv-x="1595" d="M332 -319l51 391l35 913h217l88 -323q54 0 125 -11q142 -24 233 -96q127 -103 127 -281q0 -130 -131 -200q-132 -72 -332 -72l72 -328zM672 260q27 -12 53 -12q51 0 91 29t40 69q0 47 -36 80t-87 33q-20 0 -26 -2z" />
<glyph unicode="&#xdf;" horiz-adv-x="1521" d="M0 -199l57 1481q0 48 256 107q256 61 506 61q211 0 326 -47q137 -58 137 -178q0 -89 -28.5 -156.5t-98.5 -155.5q143 -62 226 -172.5t83 -240.5q0 -168 -198 -281q-153 -88 -406 -135q-187 -35 -315 -35h-29l-4 4l-41 334q9 -18 107 -18q122 0 229 37q129 46 129 116 q0 58 -75.5 92.5t-184.5 34.5q-97 0 -160.5 -24t-73.5 -72l-18 336q17 -20 57 -17q105 0 240 66q141 70 141 143q0 47 -80 74q-82 31 -186 31q-97 0 -163.5 -25t-76.5 -71l21 -1237z" />
<glyph unicode="&#xe0;" horiz-adv-x="1523" d="M-31 63l572 1455l385 -105l643 -1298l-500 -260l-174 342l-279 -72l-174 -313zM299 1663l137 156l473 -220l-116 -126zM586 457h309l-168 530z" />
<glyph unicode="&#xe1;" horiz-adv-x="1523" d="M-31 63l572 1455l385 -105l643 -1298l-500 -260l-174 342l-279 -72l-174 -313zM586 457h309l-168 530zM657 1599l473 220l138 -156l-494 -190z" />
<glyph unicode="&#xe2;" horiz-adv-x="1523" d="M-31 63l572 1455l385 -105l643 -1298l-500 -260l-174 342l-279 -72l-174 -313zM350 1645l377 172l330 -172l-213 -138l-117 138l-260 -138zM586 457h309l-168 530z" />
<glyph unicode="&#xe3;" horiz-adv-x="1523" d="M-31 63l572 1455l385 -105l643 -1298l-500 -260l-174 342l-279 -72l-174 -313zM287 1622l377 172l188 -141l209 141l61 -139l-342 -170l-116 137l-261 -137zM586 457h309l-168 530z" />
<glyph unicode="&#xe4;" horiz-adv-x="1523" d="M-31 63l572 1455l385 -105l643 -1298l-500 -260l-174 342l-279 -72l-174 -313zM426 1673l211 62l6 -193l-172 -29zM586 457h309l-168 530zM776 1540l6 182h258l-98 -200z" />
<glyph unicode="&#xe5;" horiz-adv-x="1523" d="M-31 63l572 1455l385 -105l643 -1298l-500 -260l-174 342l-279 -72l-174 -313zM559 1653q0 67 58 112t141 45q75 0 131.5 -45.5t56.5 -111.5q0 -67 -58 -112.5t-140 -45.5q-75 0 -132 46.5t-57 111.5zM586 457h309l-168 530zM668 1659q0 -27 20 -48.5t49 -21.5 q35 0 61.5 20t26.5 46q0 25 -22 43t-51 18q-34 0 -59 -16t-25 -41z" />
<glyph unicode="&#xe6;" horiz-adv-x="2189" d="M8 63l914 1455l360 -105l12 -49l791 61l-12 -542l-572 -19v-157l318 10v-187l-252 -20v-145l475 -11l31 -270l-846 -152l-166 -77l-94 342l-295 -72l-248 -313zM719 457h309l-43 530z" />
<glyph unicode="&#xe7;" horiz-adv-x="1257" d="M43 653q0 329 172 553q182 238 469 238q124 0 168 -8q51 -6 141 -43v-574q-54 31 -131 31q-106 0 -188 -49q-80 -50 -80 -135q0 -69 75 -118.5t183 -49.5q121 0 174 73l197 -487q-88 -77 -170.5 -117.5t-178.5 -52.5q46 -56 46 -123q0 -63 -60 -104t-137 -41 q-55 0 -102 27t-70 73l94 43q12 -41 74 -41q31 0 46 12.5t15 46.5q0 45 -45 54q-43 6 -82 6q-22 0 -26 -2l8 53q-253 40 -424 250q-168 207 -168 485z" />
<glyph unicode="&#xe8;" horiz-adv-x="1112" d="M102 1640l138 156l473 -219l-117 -127zM111 1352l938 73l-13 -542l-571 -19v-157l317 10v-187l-254 -20v-145l478 -11l30 -270l-880 -168z" />
<glyph unicode="&#xe9;" horiz-adv-x="1112" d="M111 1352l938 73l-13 -542l-571 -19v-157l317 10v-187l-254 -20v-145l478 -11l30 -270l-880 -168zM438 1569l473 219l138 -156l-494 -190z" />
<glyph unicode="&#xea;" horiz-adv-x="1112" d="M111 1352l938 73l-13 -542l-571 -19v-157l317 10v-187l-254 -20v-145l478 -11l30 -270l-880 -168zM211 1575l377 172l330 -172l-213 -137l-117 137l-260 -137z" />
<glyph unicode="&#xeb;" horiz-adv-x="1112" d="M111 1352l938 73l-13 -542l-571 -19v-157l317 10v-187l-254 -20v-145l478 -11l30 -270l-880 -168zM287 1683l211 62l6 -193l-172 -28zM637 1550l6 183h258l-98 -201z" />
<glyph unicode="&#xec;" horiz-adv-x="772" d="M-82 1647l139 155l471 -219l-116 -127zM125 -119v1493l559 43v-1474z" />
<glyph unicode="&#xed;" horiz-adv-x="772" d="M125 -119v1493l559 43v-1474zM178 1571l473 219l137 -156l-493 -190z" />
<glyph unicode="&#xee;" horiz-adv-x="772" d="M113 1591l311 144l274 -144l-178 -114l-96 114l-215 -114zM125 -119v1493l559 43v-1474z" />
<glyph unicode="&#xef;" horiz-adv-x="772" d="M86 1642l209 62l6 -193l-170 -28zM125 -119v1493l559 43v-1474zM434 1509l8 183h258l-98 -201z" />
<glyph unicode="&#xf0;" horiz-adv-x="1400" d="M51 465q0 176 65 257t201 81q51 0 97 -12q20 -4 88 -31q-23 107 -99 237l-219 -75l-80 155l203 80q-89 130 -145 164l190 274q85 -39 170 -112q86 -73 164 -170l209 82l90 -195l-172 -59q87 -134 139 -262q56 -127 56 -199q0 -279 -125 -477q-123 -197 -316 -197 q-216 0 -362 125q-154 133 -154 334zM256 432q0 -56 34 -95.5t83 -39.5q45 0 76.5 38t31.5 97q0 57 -30.5 96t-77.5 39q-51 0 -84 -37.5t-33 -97.5z" />
<glyph unicode="&#xf1;" horiz-adv-x="1507" d="M115 -133v1575l825 -580l-115 631l576 -221v-1356l-811 823l221 -764zM375 1632l377 172l188 -141l209 141l61 -139l-342 -170l-116 137l-260 -137z" />
<glyph unicode="&#xf2;" horiz-adv-x="1411" d="M66 645q0 333 184 563q196 246 500 246q269 0 452 -219q182 -218 182 -530q0 -106 -34 -242q-59 -222 -179 -354q-165 -183 -421 -183q-287 0 -486 211q-198 210 -198 508zM440 1663l138 156l473 -220l-117 -126zM526 729q0 -75 49.5 -125.5t122.5 -50.5q97 0 185 98 q90 101 90 201q0 68 -49.5 117t-118.5 49q-99 0 -182 -74q-97 -85 -97 -215z" />
<glyph unicode="&#xf3;" horiz-adv-x="1411" d="M66 645q0 333 184 563q196 246 500 246q269 0 452 -219q182 -218 182 -530q0 -106 -34 -242q-59 -222 -179 -354q-165 -183 -421 -183q-287 0 -486 211q-198 210 -198 508zM526 729q0 -75 49.5 -125.5t122.5 -50.5q97 0 185 98q90 101 90 201q0 68 -49.5 117t-118.5 49 q-99 0 -182 -74q-97 -85 -97 -215zM549 1612l473 219l137 -156l-493 -190z" />
<glyph unicode="&#xf4;" horiz-adv-x="1411" d="M66 645q0 333 184 563q196 246 500 246q269 0 452 -219q182 -218 182 -530q0 -106 -34 -242q-59 -222 -179 -354q-165 -183 -421 -183q-287 0 -486 211q-198 210 -198 508zM379 1602l377 172l329 -172l-213 -138l-116 138l-260 -138zM526 729q0 -75 49.5 -125.5 t122.5 -50.5q97 0 185 98q90 101 90 201q0 68 -49.5 117t-118.5 49q-99 0 -182 -74q-97 -85 -97 -215z" />
<glyph unicode="&#xf5;" horiz-adv-x="1411" d="M66 645q0 333 184 563q196 246 500 246q269 0 452 -219q182 -218 182 -530q0 -106 -34 -242q-59 -222 -179 -354q-165 -183 -421 -183q-287 0 -486 211q-198 210 -198 508zM311 1618l377 172l189 -141l208 141l62 -139l-342 -170l-117 137l-260 -137zM526 729 q0 -75 49.5 -125.5t122.5 -50.5q97 0 185 98q90 101 90 201q0 68 -49.5 117t-118.5 49q-99 0 -182 -74q-97 -85 -97 -215z" />
<glyph unicode="&#xf6;" horiz-adv-x="1411" d="M66 645q0 333 184 563q196 246 500 246q269 0 452 -219q182 -218 182 -530q0 -106 -34 -242q-59 -222 -179 -354q-165 -183 -421 -183q-287 0 -486 211q-198 210 -198 508zM434 1661l211 61l6 -192l-172 -29zM526 729q0 -75 49.5 -125.5t122.5 -50.5q97 0 185 98 q90 101 90 201q0 68 -49.5 117t-118.5 49q-99 0 -182 -74q-97 -85 -97 -215zM784 1528l7 182h258l-99 -201z" />
<glyph unicode="&#xf7;" horiz-adv-x="1073" d="M27 506l22 223l971 66l-37 -217zM287 154l28 280l326 45l-27 -299zM365 829l30 263l297 34l-18 -262z" />
<glyph unicode="&#xf8;" horiz-adv-x="1411" d="M66 645q0 333 184 563q196 246 500 246q178 0 315 -90l104 184l174 -268l-90 -115q131 -204 131 -460q0 -106 -34 -242q-59 -222 -179 -354q-165 -183 -421 -183q-196 0 -349 99l-94 -125l-127 41l111 172q-97 81 -162 229q-63 147 -63 303zM526 729q0 -74 49 -125 t123 -51q69 0 146 65q80 68 114 144q9 30 9 65q0 81 -44.5 136t-117.5 55q-99 0 -182 -74q-97 -85 -97 -215z" />
<glyph unicode="&#xf9;" horiz-adv-x="1501" d="M70 1014q0 225 51 430l612 -174v-203q0 -563 119 -563q95 0 147 136.5t52 369.5q0 226 -35 383l420 -64q0 -339 -43 -661q-44 -323 -185 -529q-170 -243 -446 -243q-317 0 -510 331q-182 317 -182 787zM365 1634l137 156l473 -219l-117 -127z" />
<glyph unicode="&#xfa;" horiz-adv-x="1501" d="M70 1014q0 225 51 430l612 -174v-203q0 -563 119 -563q95 0 147 136.5t52 369.5q0 226 -35 383l420 -64q0 -339 -43 -661q-44 -323 -185 -529q-170 -243 -446 -243q-317 0 -510 331q-182 317 -182 787zM739 1577l473 219l138 -156l-494 -190z" />
<glyph unicode="&#xfb;" horiz-adv-x="1501" d="M70 1014q0 225 51 430l612 -174v-203q0 -563 119 -563q95 0 147 136.5t52 369.5q0 226 -35 383l420 -64q0 -339 -43 -661q-44 -323 -185 -529q-170 -243 -446 -243q-317 0 -510 331q-182 317 -182 787zM442 1599l377 173l330 -173l-213 -137l-117 137l-260 -137z" />
<glyph unicode="&#xfc;" horiz-adv-x="1501" d="M70 1014q0 225 51 430l612 -174v-203q0 -563 119 -563q95 0 147 136.5t52 369.5q0 226 -35 383l420 -64q0 -339 -43 -661q-44 -323 -185 -529q-170 -243 -446 -243q-317 0 -510 331q-182 317 -182 787zM524 1647l211 61l6 -192l-172 -29zM874 1513l7 183h258l-99 -201z " />
<glyph unicode="&#xfd;" horiz-adv-x="1839" d="M0 909l401 510l705 -461l309 388l426 -279l-440 -557v-643l-797 49v619zM879 1538l473 219l137 -155l-494 -191z" />
<glyph unicode="&#xfe;" horiz-adv-x="1595" d="M244 1051l485 6l-57 -236q199 0 329 -71q132 -71 132 -201q0 -180 -123 -279q-92 -74 -236 -98q-65 -10 -125 -10l-67 -164h-220l-53 754zM596 563l37 -196q6 -2 26 -2q48 0 85.5 34t37.5 78q0 40 -40 69t-91 29q-28 0 -55 -12z" />
<glyph unicode="&#xff;" horiz-adv-x="1839" d="M0 909l401 510l705 -461l309 388l426 -279l-440 -557v-643l-797 49v619zM690 1677l211 62l6 -193l-172 -28zM1040 1544l7 182h258l-99 -200z" />
<glyph unicode="&#x152;" horiz-adv-x="2342" d="M43 686q0 333 221 574q229 247 565 247v-55q88 0 254 -25l142 -24l895 104l22 -301l-475 -51l35 -272l307 22l35 -229l-234 -84l23 -105l420 33l31 -571l-947 114l-4 60q-228 -123 -504 -123q-327 0 -557 199q-229 198 -229 487zM573 592q0 -108 80.5 -183t206.5 -87 q177 0 242 71q55 64 55 219q0 105 -59 176q-70 82 -205 82l-64 -6v41q-118 -23 -187 -107t-69 -206z" />
<glyph unicode="&#x153;" horiz-adv-x="2080" d="M66 645q0 333 184 563q196 246 500 246q193 0 331 -102l936 73l-12 -542l-571 -19v-157l317 10v-187l-252 -20v-145l475 -11l31 -270l-881 -168l-4 145q-153 -135 -370 -135q-287 0 -486 211q-198 210 -198 508zM526 729q0 -75 49.5 -125.5t122.5 -50.5q97 0 185 98 q90 101 90 201q0 68 -49.5 117t-118.5 49q-99 0 -182 -74q-97 -85 -97 -215z" />
<glyph unicode="&#x178;" horiz-adv-x="1732" d="M8 1196l729 270l285 -551l389 406l283 -199l-484 -497v-688l-706 -41l-10 757zM766 1669l203 60l6 -183l-164 -28zM1104 1544l6 172h250l-94 -190z" />
<glyph unicode="&#x2c6;" horiz-adv-x="815" d="M43 1405l377 172l330 -172l-213 -137l-117 137l-260 -137z" />
<glyph unicode="&#x2dc;" horiz-adv-x="940" d="M43 1405l377 172l188 -141l209 141l62 -139l-342 -170l-117 137l-260 -137z" />
<glyph unicode="&#x2000;" horiz-adv-x="1188" />
<glyph unicode="&#x2001;" horiz-adv-x="2376" />
<glyph unicode="&#x2002;" horiz-adv-x="1188" />
<glyph unicode="&#x2003;" horiz-adv-x="2376" />
<glyph unicode="&#x2004;" horiz-adv-x="792" />
<glyph unicode="&#x2005;" horiz-adv-x="594" />
<glyph unicode="&#x2006;" horiz-adv-x="396" />
<glyph unicode="&#x2007;" horiz-adv-x="396" />
<glyph unicode="&#x2008;" horiz-adv-x="297" />
<glyph unicode="&#x2009;" horiz-adv-x="475" />
<glyph unicode="&#x200a;" horiz-adv-x="132" />
<glyph unicode="&#x2010;" horiz-adv-x="952" d="M0 317l18 361l838 51l-18 -369z" />
<glyph unicode="&#x2011;" horiz-adv-x="952" d="M0 317l18 361l838 51l-18 -369z" />
<glyph unicode="&#x2012;" horiz-adv-x="952" d="M0 317l18 361l838 51l-18 -369z" />
<glyph unicode="&#x2013;" horiz-adv-x="952" d="M53 754l828 49l18 -199l-811 -12z" />
<glyph unicode="&#x2014;" horiz-adv-x="1648" d="M53 754l1514 49l16 -199l-1495 -12z" />
<glyph unicode="&#x2018;" horiz-adv-x="602" d="M16 1477h447l59 -414l-258 -82z" />
<glyph unicode="&#x2019;" horiz-adv-x="602" d="M49 1063l62 414h446l-248 -496z" />
<glyph unicode="&#x201a;" horiz-adv-x="708" d="M-45 -205q136 78 210.5 200.5t74.5 268.5q0 40 -13 103q291 -90 389 -129q11 -42 11 -72q0 -130 -115 -254q-102 -108 -270 -193q-77 24 -287 76z" />
<glyph unicode="&#x201c;" horiz-adv-x="1267" d="M-4 1358l350 139l352 -473l-323 -98zM606 1477h447l59 -414l-258 -82z" />
<glyph unicode="&#x201d;" horiz-adv-x="1267" d="M154 1063l61 414h444l-247 -496zM567 1024l353 473l348 -139l-375 -432z" />
<glyph unicode="&#x201e;" horiz-adv-x="1226" d="M-45 -205q131 73 204.5 206t73.5 280q0 43 -6 86q291 -90 389 -129q11 -42 11 -74q0 -133 -115 -254q-101 -105 -270 -191q-77 24 -287 76zM487 -205q136 73 207.5 201.5t71.5 284.5v32q0 9 -2 29.5t-2 24.5l207 -68l182 -61q8 -31 8 -76q0 -131 -115 -252 q-105 -111 -272 -191q-43 15 -127 37z" />
<glyph unicode="&#x2022;" horiz-adv-x="411" d="M63 782q0 56 46 101t108 45q60 0 105 -43t45 -103q0 -118 -134 -145q-72 -6 -121 35t-49 110z" />
<glyph unicode="&#x2026;" horiz-adv-x="2514" d="M184 199q0 114 79 190t202 76q129 0 211 -88q72 -78 72 -176q0 -118 -91 -197q-79 -67 -190 -67q-130 0 -213 86q-70 73 -70 176zM1153 199q0 114 79 190t202 76q129 0 211 -88q71 -77 71 -176q0 -119 -90 -197q-79 -67 -190 -67q-130 0 -213 86q-70 73 -70 176z M2122 199q0 114 78.5 190t201.5 76q129 0 211 -88q72 -78 72 -176q0 -119 -90 -197q-79 -67 -191 -67q-130 0 -213 86q-69 72 -69 176z" />
<glyph unicode="&#x202f;" horiz-adv-x="475" />
<glyph unicode="&#x2039;" horiz-adv-x="983" d="M102 604l592 514l185 -162l-392 -329l392 -269l-170 -211z" />
<glyph unicode="&#x203a;" horiz-adv-x="983" d="M119 354l395 269l-395 329l184 162l596 -514l-608 -455z" />
<glyph unicode="&#x205f;" horiz-adv-x="594" />
<glyph unicode="&#x2122;" horiz-adv-x="1955" d="M68 1444l594 94l12 -184l-127 -25l-55 -569l-254 74v464l-132 -12zM670 823l137 703l293 -17l176 -301l192 246l248 35l127 -715l-313 45l-35 402l-225 -396l-99 15l-221 405l-6 -450z" />
<glyph unicode="&#x25fc;" horiz-adv-x="1505" d="M0 0v1505h1505v-1505h-1505z" />
</font>
</defs>
</svg>
